<?xml version="1.0" encoding="UTF-8" standalone="no"?>
<!-- Created with Inkscape (http://www.inkscape.org/) -->

<svg
   version="1.1"
   id="svg1"
   width="187.49092"
   height="245.6618"
   viewBox="0 0 187.49092 245.6618"
   xmlns="http://www.w3.org/2000/svg"
   xmlns:svg="http://www.w3.org/2000/svg">
  <defs
     id="defs1" />
  <g
     id="g1"
     transform="translate(-113.36232,-2.3190587)">
    <path
       style="fill:#ea580c"
       d="m 205.99509,246.6972 c -2.75835,-3.35131 -10.4111,-12.78569 -15.13646,-18.66038 -2.83135,-3.51999 -8.63133,-10.71999 -12.88885,-15.99999 -10.89522,-13.51181 -29.89164,-37.24122 -32.40599,-40.48 -1.16139,-1.496 -3.72439,-4.592 -5.69557,-6.88 -14.9624,-17.36728 -22.54292,-33.42218 -25.76119,-54.56 -0.71336,-4.68546 -0.97636,-15.17498 -0.51348,-20.479997 2.48596,-28.490989 16.43241,-53.405852 39.07177,-69.800359 20.86018,-15.1061012 46.43033,-20.66419628 72.72441,-15.8078564 27.76524,5.1280543 53.7232,25.3953754 66.00582,51.5356884 9.88233,21.031944 12.04864,43.545704 6.36474,66.146694 -3.54333,14.08942 -11.03385,28.44297 -20.75213,39.76583 -1.51059,1.76 -5.57959,6.728 -9.04222,11.04 -7.83452,9.75629 -13.4425,16.74157 -26.84779,33.4415 -5.79306,7.21683 -12.90883,16.05994 -15.81283,19.65136 -6.78132,8.38656 -17.98417,22.23733 -18.09141,22.36751 -0.0455,0.0552 -0.59394,-0.52079 -1.21882,-1.28 z m 11.20474,-71.15411 c 24.90794,-3.68621 46.38319,-19.80096 57.76523,-43.34626 3.42709,-7.0894 5.71849,-14.62155 7.02589,-23.09501 0.99974,-6.47954 1.0057,-16.73948 0.0134,-23.144987 -1.43138,-9.240242 -4.20414,-17.726455 -8.40675,-25.729424 -10.57907,-20.145572 -30.09814,-34.896598 -51.86853,-39.198283 -24.78951,-4.898244 -49.48567,2.703435 -67.58565,20.803413 -7.70935,7.709348 -14.14522,17.778838 -17.97551,28.124294 -1.62937,4.400843 -3.49206,11.97328 -4.17187,16.96 -0.73156,5.366231 -0.75165,15.784307 -0.0401,20.810897 1.26639,8.94672 3.74022,17.09665 7.57305,24.9491 7.72127,15.81881 20.22714,28.44046 35.69634,36.02681 8.80594,4.31859 16.02328,6.29792 27.2,7.45951 2.48617,0.25839 11.35332,-0.11375 14.77451,-0.62006 z m -54.8338,-31.33463 c -2.2208,-0.96589 -2.47866,-3.26938 -0.92382,-8.25248 1.83165,-5.87024 2.99072,-8.42907 12.13909,-26.79915 4.59548,-9.227816 5.15962,-10.87924 4.3687,-12.78869 -0.74272,-1.793098 -1.92559,-2.201402 -8.37157,-2.889704 -9.55023,-1.019776 -11.34049,-1.851421 -13.43611,-6.241603 -1.78102,-3.731112 -1.03785,-7.627686 2.09318,-10.975011 4.2572,-4.551297 13.67453,-9.455645 27.45602,-14.298521 l 3.42621,-1.203983 0.18515,-1.481242 c 1.27295,-10.184014 3.74548,-15.112409 9.2323,-18.402344 3.32092,-1.991254 8.59932,-2.658976 12.93627,-1.636452 7.64261,1.8019 12.03887,8.209459 13.34801,19.454735 0.25469,2.18774 -0.40925,1.78315 8.00586,4.878643 13.88653,5.108157 22.63034,10.558456 25.15014,15.676905 0.90336,1.834984 0.98977,2.266112 0.88198,4.400608 -0.21915,4.339834 -2.59835,7.554795 -6.44624,8.710672 -0.91624,0.275229 -4.29291,0.778719 -7.50371,1.118865 -7.16752,0.759313 -8.40454,1.296477 -8.87919,3.855707 -0.33584,1.810815 0.72901,4.387485 6.40622,15.501415 5.98545,11.71737 8.16114,16.55624 10.02952,22.30637 1.86528,5.74059 1.72653,7.80467 -0.60317,8.97313 -1.01209,0.50761 -2.43629,0.55944 -15.35555,0.5588 -13.6392,-6.7e-4 -14.28395,-0.0275 -15.28158,-0.63576 -1.21775,-0.74247 -1.97757,-1.88775 -6.75626,-10.1837 -5.36047,-9.30594 -5.8629,-9.97884 -7.45086,-9.97884 -1.23058,0 -1.84799,0.75455 -4.97492,6.08 -7.91968,13.48795 -7.9848,13.58825 -9.19875,14.16715 -1.04562,0.49861 -2.54735,0.55162 -15.30849,0.54032 -11.3315,-0.01 -14.35212,-0.10081 -15.16843,-0.45584 z"
       id="path1" />
  </g>
</svg>
